# xmcd CD database file
#
# Track frame offsets:
#	150
#	19238
#	44372
#	76361
#	94570
#	104726
#	133888
#	155724
#	164885
#	184339
#	197797
#	216159
#	222905
#	230085
#	252167
#
# Disc length: 3642 seconds
#
# Revision: 0
# Processed by: cddbd v1.5.2PL0 Copyright (c) Steve Scherf et al.
# Submitted via: CDex 1.70beta2
#
DISCID=e60e380f
DTITLE=Zebradonk - Zebradonk
DYEAR=1900
DGENRE=Jazz
TTITLE0=Radio Friendly Virginia
TTITLE1=Down Caribbean Way
TTITLE2=Fuzz/Precussion/I'm Gonna Go Down and Pick Up My Woman
TTITLE3=Zebra Hunt/Donkey Dance
TTITLE4=Controversial Drum Solo
TTITLE5=Alcheriee
TTITLE6=Controversial Trumpet Solo
TTITLE7=Wishy Washy
TTITLE8=March
TTITLE9=On The Sunny Shore(for Lorna)
TTITLE10=Ballade
TTITLE11=Inventions in Bass Clef
TTITLE12=DJ Mix
TTITLE13=Slow Dance
TTITLE14=Crowded At Coburn's
EXTD=
EXTT0=
EXTT1=
EXTT2=
EXTT3=
EXTT4=
EXTT5=
EXTT6=
EXTT7=
EXTT8=
EXTT9=
EXTT10=
EXTT11=
EXTT12=
EXTT13=
EXTT14=
PLAYORDER=
